<svg id="Layer_1" data-name="Layer 1" xmlns="http://www.w3.org/2000/svg" fill="#FFFFFF" viewBox="0 0 117.06 40.28"><path d="M27.06,11.15,20.44,21.28v7.9H16.72V21.55L9.91,11.15h4.48l4.12,7,4.24-7Z"/><path d="M34.05,21.07v-1.9c0-5.34,2.74-8,8.58-8s8.58,2.66,8.58,8v1.9c0,5.44-2.74,8.1-8.58,8.1S34.05,26.51,34.05,21.07Zm13.4-.14v-1.6c0-3.55-1.61-4.92-4.82-4.92s-4.82,1.37-4.82,4.92v1.6c0,3.61,1.61,5,4.82,5S47.45,24.54,47.45,20.93Z"/><path d="M59,23.29v-.11h3.38v.08c0,1.92,1.55,2.94,4.36,2.94,2.57,0,3.86-.63,3.86-2.2V24c0-1.4-1-1.89-2.81-2.1l-2.52-.29c-3.65-.42-6-1.74-6-5.38v-.06c0-3.09,2.21-5,7.25-5s7.19,2.29,7.19,5.57v.15H70.23v-.1c0-1.73-1.34-2.65-3.88-2.65s-3.6.6-3.62,1.94v.05c0,1.39,1,1.92,3.09,2.21l2.86.31c3.13.37,5.41,1.76,5.44,5.07v.1c0,3.6-2.57,5.36-7.43,5.36C61,29.17,59,26.68,59,23.29Z"/><path d="M104.88,29.17v-18h3.7v18Z"/><path d="M81.27,23.29v-.11h3.38v.08c0,1.92,1.55,2.94,4.36,2.94,2.57,0,3.86-.63,3.86-2.2V24c0-1.4-1.05-1.89-2.81-2.1l-2.52-.29c-3.65-.42-6-1.74-6-5.38v-.06c0-3.09,2.21-5,7.25-5s7.19,2.29,7.19,5.57v.15H92.56v-.1c0-1.73-1.34-2.65-3.89-2.65s-3.6.6-3.62,1.94v.05c0,1.39,1,1.92,3.1,2.21l2.86.31c3.12.37,5.4,1.76,5.43,5.07v.1c0,3.6-2.57,5.36-7.43,5.36C83.34,29.17,81.27,26.68,81.27,23.29Z"/></svg>